<?xml version="1.0" standalone="no"?>
<!DOCTYPE svg PUBLIC "-//W3C//DTD SVG 20010904//EN"
 "http://www.w3.org/TR/2001/REC-SVG-20010904/DTD/svg10.dtd">
<svg version="1.0" xmlns="http://www.w3.org/2000/svg"
 width="1254.000000pt" height="1254.000000pt" viewBox="0 0 1254.000000 1254.000000"
 preserveAspectRatio="xMidYMid meet">
<metadata>
Created by potrace 1.16, written by Peter Selinger 2001-2019
</metadata>
<g transform="translate(0.000000,1254.000000) scale(0.100000,-0.100000)"
fill="#000000" stroke="none">
<path d="M6760 10625 c-148 -17 -426 -64 -455 -76 -16 -7 -14 -8 10 -4 442 70
860 70 1278 0 1529 -259 2770 -1401 3201 -2946 53 -186 110 -473 132 -659 25
-210 30 -657 10 -867 -77 -803 -357 -1522 -837 -2153 -390 -513 -874 -908
-1449 -1183 -381 -183 -805 -306 -1250 -362 -176 -23 -590 -31 -786 -16 -188
15 -432 50 -596 85 -214 47 -165 25 99 -44 158 -41 311 -71 498 -96 156 -21
600 -30 777 -15 1128 95 2160 670 2848 1586 588 783 894 1793 841 2772 -75
1412 -769 2669 -1862 3376 -493 318 -1018 511 -1614 593 -168 23 -675 28 -845
9z"/>
<path d="M5945 9941 c-99 -26 -190 -89 -254 -175 -83 -113 -113 -208 -114
-366 -2 -244 109 -507 329 -782 76 -94 259 -282 345 -355 183 -153 223 -183
239 -183 16 0 79 41 329 217 205 143 398 332 479 468 108 183 130 361 61 501
-75 156 -274 232 -452 173 -121 -40 -239 -145 -304 -271 l-22 -43 -1 105 c-1
348 -110 575 -327 678 -72 34 -86 37 -178 39 -55 1 -113 -2 -130 -6z m260
-239 c79 -28 133 -68 182 -136 91 -126 133 -279 133 -490 0 -116 2 -127 16
-115 8 7 24 29 34 48 51 98 184 219 280 254 156 58 300 -39 300 -200 0 -44
-28 -141 -59 -208 -36 -77 -84 -145 -189 -268 -83 -97 -381 -379 -406 -385
-13 -3 -144 134 -261 273 -143 171 -288 424 -351 610 -38 116 -46 309 -15 410
26 87 78 154 146 188 81 41 116 45 190 19z"/>
<path d="M4735 9054 c-200 -29 -308 -92 -367 -211 -43 -87 -46 -183 -9 -285
14 -38 27 -68 31 -68 3 0 12 16 18 35 44 119 264 193 496 167 257 -30 417 -96
736 -303 290 -187 373 -223 632 -274 138 -27 152 -29 143 -16 -12 20 -166 131
-285 206 -98 61 -255 178 -290 215 -3 3 -54 47 -114 99 -272 233 -475 354
-683 407 -94 24 -244 37 -308 28z"/>
<path d="M7965 9015 c-222 -49 -402 -161 -755 -468 -135 -118 -272 -219 -389
-287 -95 -55 -231 -150 -231 -162 0 -5 15 -6 33 -3 368 63 400 75 615 217 359
239 534 323 749 364 99 18 285 16 304 -3 9 -9 2 -25 -31 -68 -84 -108 -194
-183 -388 -261 -146 -59 -256 -86 -712 -174 -118 -23 -282 -55 -364 -71 -194
-39 -387 -43 -541 -11 -172 36 -363 70 -570 102 -110 17 -236 38 -280 46 -184
37 -389 108 -520 182 -74 41 -215 146 -215 161 0 3 -12 19 -26 35 l-25 28 -46
-17 c-96 -37 -155 -125 -139 -207 34 -172 341 -325 747 -372 74 -9 152 -17
174 -17 22 -1 2 -6 -45 -11 -738 -77 -1073 -120 -1096 -139 -15 -12 -16 -29
-10 -153 7 -144 13 -186 26 -186 9 0 28 95 37 188 3 34 11 66 17 70 6 4 153
21 326 39 173 17 380 39 460 47 593 65 857 80 1415 80 605 0 888 -18 1715
-109 179 -19 364 -40 412 -46 l87 -12 5 -41 c6 -43 30 -259 41 -358 7 -60 19
-75 28 -35 3 12 9 130 13 262 6 212 5 242 -9 253 -9 8 -49 18 -89 23 -174 23
-171 22 -65 30 256 20 510 133 676 302 65 66 108 124 98 133 -3 3 -28 -10 -55
-30 -176 -123 -455 -209 -776 -237 -130 -12 -543 -7 -669 7 l-58 7 128 33
c350 89 525 216 579 419 32 120 8 265 -57 338 -44 51 -133 100 -207 116 -70
15 -242 13 -317 -4z"/>
<path d="M2889 8239 c-276 -163 -374 -280 -452 -543 -26 -85 -53 -149 -99
-230 -57 -99 -124 -229 -160 -311 -12 -28 -13 -25 -16 54 -2 47 2 107 8 133
15 71 12 197 -6 257 -23 79 -129 251 -144 234 -13 -14 -40 -162 -40 -222 0
-82 24 -153 86 -256 l54 -90 0 -122 c0 -120 -1 -125 -49 -265 -26 -79 -66
-214 -87 -302 l-39 -158 -22 73 c-13 41 -23 97 -23 124 0 150 -39 315 -97 414
-30 52 -284 304 -294 293 -11 -11 18 -288 37 -351 35 -121 86 -192 255 -348
63 -59 79 -96 105 -248 14 -85 14 -102 0 -192 -9 -54 -22 -185 -28 -292 l-12
-193 -36 73 c-21 41 -45 107 -55 147 -27 114 -75 176 -207 272 -61 44 -114 80
-119 80 -12 0 -11 -7 6 -90 32 -151 103 -250 236 -326 73 -42 79 -48 117 -122
54 -104 71 -167 82 -297 11 -131 59 -394 94 -520 l25 -90 -32 40 c-18 22 -55
67 -82 100 -30 36 -62 88 -78 130 -62 158 -151 283 -262 367 -61 47 -370 206
-380 197 -7 -7 49 -173 86 -256 59 -132 169 -252 283 -310 27 -14 88 -40 135
-58 125 -49 146 -61 192 -113 53 -60 209 -294 209 -314 0 -25 141 -303 218
-431 186 -308 439 -583 669 -726 175 -109 330 -171 523 -212 129 -27 395 -30
525 -6 l80 15 64 -60 c209 -196 533 -370 844 -453 214 -58 312 -70 587 -69
201 0 275 3 350 18 675 126 1132 537 1399 1258 27 73 69 189 92 256 34 100 49
130 78 158 25 23 33 36 25 44 -7 7 -155 9 -455 8 -436 -3 -444 -3 -444 -23 0
-18 7 -20 85 -22 153 -4 543 -23 547 -26 2 -2 -24 -88 -58 -191 -67 -207 -74
-220 -192 -313 -83 -66 -207 -133 -302 -163 -89 -28 -282 -38 -390 -21 -250
41 -441 213 -520 471 -22 73 -31 276 -16 366 27 155 105 343 196 469 55 76
173 192 249 246 231 160 549 233 797 181 164 -34 265 -96 326 -199 49 -84 40
-204 -22 -295 -56 -82 -10 -77 57 6 56 70 80 135 80 215 0 184 -197 313 -521
341 -528 44 -1066 -242 -1288 -685 -171 -341 -143 -704 73 -945 94 -104 244
-190 399 -230 104 -27 333 -38 442 -21 167 26 347 100 441 180 26 23 48 36 50
31 3 -9 -46 -106 -131 -260 -128 -230 -381 -476 -607 -590 -421 -212 -1000
-221 -1536 -22 -176 66 -447 220 -568 325 l-39 33 64 24 c167 61 324 157 443
270 100 95 153 165 203 265 52 104 67 169 67 285 0 79 -4 103 -23 142 -51 105
-130 153 -251 153 -66 0 -84 -4 -143 -34 -88 -44 -171 -134 -229 -246 l-42
-82 -27 58 c-34 71 -100 139 -170 175 -43 21 -68 27 -129 28 -65 1 -81 -3
-122 -27 -60 -35 -105 -90 -123 -151 -18 -59 -19 -184 -4 -258 27 -127 123
-310 235 -447 37 -45 64 -84 61 -87 -13 -14 -170 -25 -256 -19 -330 23 -615
139 -891 362 -68 56 -235 221 -285 283 -307 380 -419 592 -521 985 -29 110
-29 164 1 310 26 124 52 162 189 270 70 55 155 147 194 208 35 55 64 144 106
322 36 150 35 154 -11 117 -21 -16 -78 -56 -128 -89 -222 -149 -304 -289 -334
-580 -6 -48 -19 -113 -29 -144 -11 -31 -26 -83 -33 -115 l-12 -59 -8 35 c-5
19 -17 117 -29 217 -33 299 -23 652 23 771 24 65 83 157 124 196 21 20 59 37
115 53 95 28 153 59 215 116 44 41 133 158 133 176 0 5 7 17 16 25 14 15 14
16 -4 16 -38 0 -225 -51 -271 -75 -63 -32 -150 -127 -188 -206 -16 -35 -45
-80 -63 -99 -18 -19 -41 -48 -51 -65 -25 -40 -24 -26 11 148 33 166 89 350
126 415 31 52 138 169 173 187 14 7 58 18 96 24 171 27 245 72 368 222 40 50
47 74 20 65 -10 -3 -71 -14 -136 -25 -145 -25 -199 -52 -276 -140 -95 -108
-215 -227 -209 -206 22 74 123 288 205 435 61 108 86 133 208 210 156 98 220
174 315 376 39 82 82 170 96 197 18 34 22 47 12 47 -8 0 -61 -28 -119 -61z
m21 -36 c0 -3 -53 -61 -119 -127 -142 -145 -203 -213 -237 -268 -37 -59 -39
-41 -3 38 63 138 148 235 285 324 60 39 74 45 74 33z m7 -30 c-2 -5 -29 -60
-61 -124 -60 -123 -115 -196 -199 -263 -87 -70 -134 -94 -93 -47 7 9 52 71
100 139 85 122 234 302 249 302 5 0 6 -3 4 -7z m-826 -485 c18 -35 38 -85 45
-113 15 -54 19 -155 7 -155 -5 0 -18 37 -30 83 -38 146 -65 238 -70 234 -2 -2
7 -60 21 -128 13 -68 27 -149 31 -179 l6 -55 -24 35 c-45 67 -62 128 -62 228
1 71 4 95 15 102 25 16 28 12 61 -52z m570 -419 c-35 -32 -86 -70 -115 -83
-52 -25 -146 -44 -146 -29 1 17 309 187 320 176 3 -3 -24 -32 -59 -64z m-1014
-106 c88 -89 117 -131 147 -212 25 -63 56 -188 55 -221 0 -8 -30 44 -67 115
-60 116 -170 303 -194 330 -14 16 5 -30 72 -170 126 -263 149 -315 141 -315
-5 0 -40 31 -78 68 -109 106 -173 263 -173 423 0 67 16 64 97 -18z m818 -502
c-56 -78 -109 -117 -193 -145 -42 -14 -77 -24 -79 -22 -9 9 296 230 306 220 2
-1 -13 -26 -34 -53z m-809 -574 c27 -32 57 -87 69 -127 7 -22 -56 39 -198 194
l-29 31 30 -45 c17 -25 64 -90 105 -145 42 -55 74 -102 72 -104 -7 -6 -98 56
-127 86 -50 52 -103 198 -77 214 15 9 118 -59 155 -104z m844 9 c0 -34 -52
-230 -74 -281 -30 -66 -104 -164 -155 -202 -20 -15 -55 -45 -78 -67 -24 -21
-43 -33 -43 -27 0 26 231 419 280 476 24 28 53 75 47 75 -9 0 -195 -236 -244
-309 -24 -35 -60 -95 -80 -132 -20 -38 -38 -67 -40 -66 -1 2 9 45 22 96 48
177 120 280 280 398 77 56 85 60 85 39z m-1224 -553 c15 -21 127 -138 248
-260 121 -123 213 -223 205 -223 -8 0 -69 27 -136 60 -104 51 -129 68 -181
125 -33 36 -76 96 -95 133 -41 77 -88 202 -77 202 4 0 20 -17 36 -37z m98 -14
c171 -87 254 -161 334 -301 66 -117 62 -118 -49 -18 -57 53 -138 123 -179 157
-81 66 -230 213 -216 213 4 0 54 -23 110 -51z m3417 -1214 c14 -11 39 -38 55
-60 28 -38 29 -45 28 -145 0 -83 -5 -117 -22 -161 -79 -200 -264 -392 -485
-502 -106 -52 -242 -101 -262 -93 -18 7 -137 147 -181 213 -55 83 -121 221
-140 293 -25 94 -22 213 6 273 31 65 78 99 143 105 121 9 239 -97 287 -259 26
-86 36 -101 63 -97 15 2 26 23 48 91 31 96 64 158 118 227 45 57 64 73 126
111 45 27 57 30 120 27 51 -2 77 -9 96 -23z"/>
<path d="M6449 7699 c-117 -27 -226 -94 -340 -208 -116 -116 -214 -266 -355
-541 -64 -125 -62 -120 -180 -395 l-81 -190 -179 -7 c-250 -10 -435 -33 -606
-77 -100 -25 -148 -34 -148 -26 0 11 81 244 129 370 213 562 267 664 391 747
19 12 22 19 13 28 -17 18 -670 7 -822 -14 -277 -38 -507 -104 -716 -205 -244
-118 -400 -240 -532 -416 -113 -151 -176 -352 -154 -494 33 -212 161 -354 386
-427 108 -35 311 -45 432 -20 84 17 183 53 183 67 0 17 -19 18 -57 5 -22 -8
-81 -19 -133 -26 -195 -25 -369 21 -493 131 -58 51 -91 100 -123 185 -29 78
-33 224 -9 319 37 144 146 314 278 435 204 187 516 323 860 375 171 26 623 46
640 29 4 -4 -18 -33 -48 -65 -63 -68 -59 -62 -152 -249 -84 -170 -198 -463
-307 -789 l-31 -94 -105 -49 c-119 -56 -134 -70 -112 -106 7 -10 29 -3 95 27
48 22 87 38 87 35 0 -11 -112 -320 -160 -440 -304 -760 -707 -1164 -1164
-1164 -231 0 -381 110 -426 310 -32 144 42 329 161 402 63 39 64 58 4 58 -52
0 -131 -28 -185 -65 -112 -78 -169 -273 -121 -416 72 -217 256 -337 546 -355
125 -8 285 14 402 57 279 100 537 324 740 642 76 119 199 367 273 552 69 170
153 397 171 458 8 27 18 52 24 57 24 19 253 77 410 105 100 18 505 39 517 27
4 -4 -21 -79 -56 -167 -80 -202 -169 -466 -207 -614 -77 -300 -79 -533 -5
-679 26 -52 104 -130 156 -157 38 -20 144 -32 153 -18 3 5 -14 28 -38 52 -81
79 -105 159 -105 354 0 158 27 310 94 539 56 187 99 312 223 641 l18 47 97 0
c89 0 98 2 112 22 31 43 23 48 -79 48 -56 0 -95 4 -95 10 0 10 62 164 123 305
318 735 556 1027 801 981 82 -16 138 -105 116 -187 -12 -43 -69 -114 -101
-124 -28 -9 -24 -35 6 -35 59 0 132 56 160 122 46 110 -6 225 -122 268 -57 21
-184 26 -254 9z"/>
<path d="M8635 7114 c-20 -21 -25 -38 -25 -76 0 -63 13 -81 116 -168 l85 -71
88 70 c101 81 126 121 118 185 -8 56 -43 86 -102 86 -32 0 -51 -7 -74 -26
l-31 -26 -31 26 c-43 37 -110 37 -144 0z"/>
<path d="M6435 6676 c-74 -19 -134 -50 -198 -104 l-57 -47 0 -77 c0 -100 16
-104 57 -15 34 70 94 130 166 163 53 25 74 29 147 29 122 0 179 -34 230 -135
18 -36 23 -63 24 -130 l1 -85 -155 -23 c-272 -39 -396 -81 -485 -163 -70 -64
-89 -108 -89 -204 -1 -64 4 -88 21 -120 57 -104 133 -147 272 -153 190 -9 288
37 390 180 l48 67 5 -64 c6 -73 31 -130 70 -159 56 -40 238 -29 238 15 0 14
-7 19 -27 19 -33 0 -43 7 -66 40 -15 22 -17 59 -17 320 0 162 -5 326 -10 363
-18 125 -82 211 -195 264 -55 25 -71 28 -190 30 -81 1 -149 -3 -180 -11z m346
-762 c-34 -73 -99 -148 -152 -174 -59 -31 -156 -45 -209 -30 -120 32 -184 187
-124 302 56 108 167 168 379 203 l130 21 3 -129 c3 -125 2 -132 -27 -193z"/>
<path d="M7398 6660 c-70 -14 -131 -29 -134 -33 -11 -11 7 -27 30 -27 13 0 34
-9 47 -19 l24 -19 0 -425 c0 -400 -1 -426 -19 -445 -10 -12 -31 -24 -47 -27
-34 -8 -47 -24 -28 -36 15 -9 313 -11 367 -2 43 7 41 29 -4 40 -27 6 -42 17
-56 43 -18 33 -19 54 -16 365 l3 331 40 51 c49 62 124 119 179 135 22 7 77 13
121 13 69 0 85 -4 121 -27 49 -31 98 -104 116 -173 9 -36 13 -137 13 -372 0
-357 2 -345 -67 -367 -39 -13 -47 -32 -16 -38 18 -4 326 -3 376 1 27 2 10 28
-25 39 -68 20 -67 18 -73 407 -5 329 -7 353 -27 404 -32 78 -69 127 -122 159
-61 38 -122 52 -224 52 -145 0 -255 -47 -359 -152 -26 -27 -49 -48 -51 -48 -3
0 -4 17 -4 38 1 20 0 65 -1 100 -2 73 13 70 -164 32z"/>
<path d="M8740 6661 c-95 -21 -126 -31 -128 -44 -2 -11 3 -17 17 -17 35 0 71
-23 79 -49 10 -35 9 -799 -1 -834 -6 -21 -20 -34 -52 -48 -86 -38 -69 -41 200
-44 72 -1 138 0 148 3 29 7 19 29 -17 36 -18 4 -42 16 -52 27 -18 20 -19 47
-22 510 l-3 489 -22 -1 c-12 -1 -78 -13 -147 -28z"/>
<path d="M9318 6662 c-121 -26 -171 -46 -137 -55 60 -17 75 -25 86 -47 9 -18
13 -106 13 -335 0 -326 5 -366 48 -451 33 -64 66 -97 124 -127 76 -38 169 -51
258 -38 100 16 168 51 249 129 l69 67 5 -82 c2 -44 8 -86 11 -92 8 -12 251
-16 280 -5 28 11 17 33 -18 40 -74 13 -71 -11 -74 535 -3 454 -4 489 -20 489
-9 -1 -75 -13 -147 -29 -100 -21 -131 -31 -133 -44 -3 -12 3 -17 21 -17 13 0
36 -9 51 -21 l26 -20 0 -330 c0 -329 0 -329 -24 -367 -34 -54 -109 -120 -169
-148 -60 -28 -167 -33 -220 -10 -44 18 -86 62 -111 116 -20 43 -21 65 -26 455
-4 354 -7 410 -20 411 -8 1 -72 -10 -142 -24z"/>
<g transform="translate(0.000000,1254.000000) scale(0.100000,-0.100000)"
fill="#000000" stroke="none">
<path d="M8671 5259 c-136 -42 -213 -160 -260 -397 l-17 -87 -69 -3 c-67 -3
-84 -11 -85 -39 0 -9 21 -13 71 -13 l71 0 -7 -42 c-34 -207 -202 -1016 -230
-1103 -44 -143 -100 -231 -163 -258 -15 -6 -61 -11 -102 -11 -69 -1 -75 -3
-78 -23 -3 -19 3 -23 43 -29 187 -28 340 57 437 242 59 112 79 193 192 774 18
96 44 231 56 300 24 131 32 150 58 148 10 -1 70 0 135 0 l117 2 0 25 0 24
-132 3 -133 3 3 70 c6 116 21 197 52 262 34 74 73 103 138 103 49 0 72 -10
121 -52 29 -26 36 -28 48 -16 7 8 16 30 19 50 6 34 5 36 -37 53 -52 21 -199
29 -248 14z"/>
<path d="M7958 5224 c-27 -12 -43 -28 -58 -60 -54 -110 31 -210 144 -172 49
16 77 53 83 110 7 57 -15 100 -61 122 -41 20 -60 20 -108 0z"/>
<path d="M9243 5008 c-40 -77 -129 -175 -185 -204 -18 -9 -55 -22 -83 -28 -40
-9 -51 -16 -53 -34 -3 -21 0 -22 67 -22 61 0 71 -2 71 -18 0 -9 -30 -163 -66
-342 -94 -458 -92 -528 14 -588 74 -42 222 -25 293 33 38 32 89 94 89 110 0
25 -30 17 -58 -16 -28 -34 -93 -68 -130 -69 -37 0 -78 27 -93 61 -15 39 2 154
86 569 l51 255 140 5 c131 5 139 6 139 25 0 19 -8 20 -125 23 -68 1 -128 6
-132 10 -4 4 2 57 13 117 33 179 34 185 16 185 -10 0 -31 -29 -54 -72z"/>
<path d="M7883 4766 c-100 -17 -123 -24 -123 -38 0 -10 11 -19 30 -23 48 -11
54 -34 35 -138 -49 -268 -136 -692 -147 -715 -9 -19 -26 -31 -61 -41 -34 -10
-47 -19 -45 -30 3 -14 29 -16 193 -16 167 0 190 2 193 16 2 11 -6 18 -25 22
-50 11 -58 22 -57 79 1 29 28 179 59 333 72 354 105 524 105 553 0 26 6 26
-157 -2z"/>
</g>
</g>
</svg>
